<svg width="312" height="98" viewBox="0 0 312 98" fill="none" xmlns="http://www.w3.org/2000/svg">
<path d="M44.8182 67.4545V26.1818H55.5455V96H44.8182V84.1818H44.0909C42.4545 87.7273 39.9091 90.7424 36.4545 93.2273C33 95.6818 28.6364 96.9091 23.3636 96.9091C19 96.9091 15.1212 95.9545 11.7273 94.0455C8.33333 92.1061 5.66667 89.197 3.72727 85.3182C1.78788 81.4091 0.818182 76.4848 0.818182 70.5455V26.1818H11.5455V69.8182C11.5455 74.9091 12.9697 78.9697 15.8182 82C18.697 85.0303 22.3636 86.5455 26.8182 86.5455C29.4849 86.5455 32.197 85.8636 34.9545 84.5C37.7424 83.1364 40.0758 81.0455 41.9545 78.2273C43.8636 75.4091 44.8182 71.8182 44.8182 67.4545Z" fill="#38B3F9"/>
<path d="M85.9205 54V96H75.1932V26.1818H85.5568V37.0909H86.4659C88.1023 33.5455 90.5871 30.697 93.9205 28.5455C97.2538 26.3636 101.557 25.2727 106.83 25.2727C111.557 25.2727 115.693 26.2424 119.239 28.1818C122.784 30.0909 125.542 33 127.511 36.9091C129.481 40.7879 130.466 45.697 130.466 51.6364V96H119.739V52.3636C119.739 46.8788 118.314 42.6061 115.466 39.5455C112.617 36.4545 108.708 34.9091 103.739 34.9091C100.314 34.9091 97.2538 35.6515 94.5568 37.1364C91.8902 38.6212 89.7841 40.7879 88.2386 43.6364C86.6932 46.4848 85.9205 49.9394 85.9205 54ZM150.068 96V26.1818H160.795V96H150.068ZM155.523 14.5455C153.432 14.5455 151.629 13.8333 150.114 12.4091C148.629 10.9848 147.886 9.27273 147.886 7.27273C147.886 5.27273 148.629 3.56061 150.114 2.13636C151.629 0.71212 153.432 0 155.523 0C157.614 0 159.402 0.71212 160.886 2.13636C162.402 3.56061 163.159 5.27273 163.159 7.27273C163.159 9.27273 162.402 10.9848 160.886 12.4091C159.402 13.8333 157.614 14.5455 155.523 14.5455ZM210.807 26.1818V35.2727H174.625V26.1818H210.807ZM185.17 9.45454H195.898V76C195.898 79.0303 196.337 81.303 197.216 82.8182C198.125 84.303 199.277 85.303 200.67 85.8182C202.095 86.303 203.595 86.5455 205.17 86.5455C206.352 86.5455 207.322 86.4848 208.08 86.3636C208.837 86.2121 209.443 86.0909 209.898 86L212.08 95.6364C211.352 95.9091 210.337 96.1818 209.034 96.4545C207.731 96.7576 206.08 96.9091 204.08 96.9091C201.049 96.9091 198.08 96.2576 195.17 94.9545C192.292 93.6515 189.898 91.6667 187.989 89C186.11 86.3333 185.17 82.9697 185.17 78.9091V9.45454ZM255.466 97.4545C248.739 97.4545 242.936 95.9697 238.057 93C233.208 90 229.466 85.8182 226.83 80.4545C224.223 75.0606 222.92 68.7879 222.92 61.6364C222.92 54.4848 224.223 48.1818 226.83 42.7273C229.466 37.2424 233.133 32.9697 237.83 29.9091C242.557 26.8182 248.072 25.2727 254.375 25.2727C258.011 25.2727 261.602 25.8788 265.148 27.0909C268.693 28.303 271.92 30.2727 274.83 33C277.739 35.697 280.057 39.2727 281.784 43.7273C283.511 48.1818 284.375 53.6667 284.375 60.1818V64.7273H230.557V55.4545H273.466C273.466 51.5151 272.678 48 271.102 44.9091C269.557 41.8182 267.345 39.3788 264.466 37.5909C261.617 35.803 258.254 34.9091 254.375 34.9091C250.102 34.9091 246.405 35.9697 243.284 38.0909C240.193 40.1818 237.814 42.9091 236.148 46.2727C234.481 49.6364 233.648 53.2424 233.648 57.0909V63.2727C233.648 68.5455 234.557 73.0152 236.375 76.6818C238.223 80.3182 240.784 83.0909 244.057 85C247.33 86.8788 251.133 87.8182 255.466 87.8182C258.284 87.8182 260.83 87.4242 263.102 86.6364C265.405 85.8182 267.39 84.6061 269.057 83C270.723 81.3636 272.011 79.3333 272.92 76.9091L283.284 79.8182C282.193 83.3333 280.36 86.4242 277.784 89.0909C275.208 91.7273 272.027 93.7879 268.239 95.2727C264.451 96.7273 260.193 97.4545 255.466 97.4545ZM311.42 2.90909V96H300.693V2.90909H311.42Z" fill="white"/>
</svg>
